<svg width="80" height="25" viewBox="0 0 80 25" fill="none" xmlns="http://www.w3.org/2000/svg">
<g clip-path="url(#clip0_7996_374)">
<path d="M14.8031 19.5876C19.828 19.4337 23.8207 15.4319 23.875 10.4614V6.18795H29.4069V10.914C29.2983 18.6007 22.6166 24.6577 14.7941 24.8388C6.8448 24.7845 0.108754 18.6822 0.00010792 10.914V2.42156C-0.0089459 1.55239 0.552392 0.991054 1.4125 1.00011H23.866V6.18795H6.2563C5.80361 6.18795 5.53199 6.45956 5.53199 6.91225V10.3708C5.60442 15.4047 9.66054 19.5333 14.8031 19.5876Z" fill="#F54C02"/>
<path d="M35.1367 4.75586H41.248C44.2086 4.75586 46.4087 5.50733 47.8392 7.01931C49.2697 8.52225 49.985 10.6499 49.985 13.3932C49.985 16.1365 49.2607 18.3819 47.8302 19.921C46.3906 21.4602 44.1996 22.2297 41.2571 22.2297H35.1458L35.1367 4.75586ZM45.0597 17.73C45.947 16.7522 46.3997 15.3126 46.3997 13.4023C46.3997 11.4919 45.956 10.0795 45.0778 9.17413C44.1996 8.26874 42.8687 7.81605 41.1122 7.81605H38.6949V19.1967H41.1122C42.8506 19.1877 44.1634 18.6987 45.0597 17.73Z" fill="#3A2932"/>
<path d="M52.7556 4.05881C53.1087 3.70572 53.5795 3.53369 54.177 3.53369C54.7746 3.53369 55.2454 3.70572 55.5894 4.05881C55.9335 4.41191 56.1055 4.8646 56.1055 5.43499C56.1055 6.00538 55.9335 6.47618 55.5894 6.81118C55.2454 7.14617 54.7746 7.30914 54.177 7.30914C53.5795 7.30914 53.1087 7.14617 52.7556 6.81118C52.4025 6.47618 52.2305 6.02349 52.2305 5.43499C52.2305 4.8465 52.4115 4.41191 52.7556 4.05881ZM55.8792 8.94788V22.2298H52.4568V8.95693L55.8792 8.94788Z" fill="#3A2932"/>
<path d="M59.0205 4.75586H65.1318C68.0924 4.75586 70.2925 5.50733 71.723 7.01931C73.1535 8.52225 73.8688 10.6499 73.8688 13.3932C73.8688 16.1365 73.1445 18.3819 71.714 19.921C70.2744 21.4602 68.0834 22.2297 65.1409 22.2297H59.0296L59.0205 4.75586ZM68.9435 17.73C69.8308 16.7522 70.2835 15.3126 70.2835 13.4023C70.2835 11.4919 69.8398 10.0795 68.9616 9.17413C68.0834 8.26874 66.7525 7.81605 64.996 7.81605H62.5787V19.1967H64.987C66.7344 19.1877 68.0562 18.6987 68.9435 17.73Z" fill="#3A2932"/>
<path d="M76.6501 4.05881C77.0032 3.70572 77.474 3.53369 78.0716 3.53369C78.6691 3.53369 79.1399 3.70572 79.484 4.05881C79.828 4.41191 80 4.8646 80 5.43499C80 6.00538 79.828 6.47618 79.484 6.81118C79.1399 7.14617 78.6691 7.30914 78.0716 7.30914C77.474 7.30914 77.0032 7.14617 76.6501 6.81118C76.297 6.47618 76.125 6.02349 76.125 5.43499C76.125 4.8465 76.297 4.41191 76.6501 4.05881ZM79.7646 8.94788V22.2298H76.3423V8.95693L79.7646 8.94788Z" fill="#3A2932"/>
</g>
<defs>
<clipPath id="clip0_7996_374">
<rect width="80" height="25" fill="white"/>
</clipPath>
</defs>
</svg>
